<svg xmlns="http://www.w3.org/2000/svg" viewBox="0 0 320 200" role="img" aria-labelledby="title desc"><title id="title">義歯の清掃</title><desc id="desc">義歯を外し、容器の上でブラシ洗浄し、粘膜を観察する。</desc><rect width="320" height="200" rx="22" fill="#e8f0ff"/><path d="M38 104c21-39 103-39 124 0-16 48-108 48-124 0Z" fill="#fff" stroke="#6689bd" stroke-width="5"/><path d="M58 102c16-20 68-20 84 0-20 19-64 19-84 0Z" fill="#f8c6bd" stroke="#e08372" stroke-width="4"/><path d="M166 118h128l-10 61H176z" fill="#fff" stroke="#4f9299" stroke-width="4"/><path d="M180 147c27 12 64 12 91 0" fill="none" stroke="#86b9be" stroke-width="5"/><path d="M175 99c16-30 71-30 87 0-16 18-71 18-87 0Z" fill="#fff8df" stroke="#d99b4e" stroke-width="4"/><path d="M160 80l94-48 14 28-94 48z" fill="#fff" stroke="#4f9299" stroke-width="4"/><path d="M249 33l36-18M254 44l36-18M260 55l36-18" stroke="#e08372" stroke-width="4"/></svg>
