<svg xmlns="http://www.w3.org/2000/svg" viewBox="0 0 320 200" role="img" aria-labelledby="title desc"><title id="title">口腔内の観察地図</title><desc id="desc">口唇、歯、歯肉、頬粘膜、舌、口蓋、唾液、義歯を観察する。</desc><rect width="320" height="200" rx="22" fill="#eef8f8"/><path d="M45 92c28-54 202-54 230 0-28 66-202 66-230 0Z" fill="#fff" stroke="#4f9299" stroke-width="5"/><path d="M73 86c22-30 152-30 174 0-31 25-143 25-174 0Z" fill="#fff8df" stroke="#d99b4e" stroke-width="4"/><path d="M79 105c28 35 134 35 162 0-32 2-130 2-162 0Z" fill="#f2a396" stroke="#e08372" stroke-width="4"/><g stroke="#6689bd" stroke-width="3"><path d="M96 69v28M116 62v40M137 58v46M158 56v49M179 58v46M200 62v40M220 69v28"/></g><g fill="#e08372"><circle cx="65" cy="93" r="6"/><circle cx="255" cy="93" r="6"/><circle cx="160" cy="126" r="6"/></g><g font-family="Arial,'Noto Sans JP',sans-serif" font-size="13" font-weight="700" fill="#275b61"><text x="18" y="35">口唇</text><text x="134" y="25">歯・歯肉</text><text x="242" y="35">頬粘膜</text><text x="22" y="178">唾液</text><text x="145" y="181">舌</text><text x="246" y="178">口蓋</text></g><g stroke="#86b9be" stroke-width="2"><path d="M52 38l22 30M160 29v26M271 38l-20 33M50 167l20-42M160 168v-31M272 166l-28-54"/></g></svg>
