<svg xmlns="http://www.w3.org/2000/svg" viewBox="0 0 320 200" role="img" aria-labelledby="t d"><title id="t">吸入時の体位と呼吸</title><desc id="d">上体を起こしてマウスピースまたはマスクからゆっくり呼吸する</desc><rect width="320" height="200" rx="22" fill="#f2f8f8"/><text x="18" y="28" fill="#315d5c" font-family="sans-serif" font-size="15" font-weight="700">上体を起こし、ゆっくり呼吸</text><circle cx="84" cy="70" r="22" fill="#fff" stroke="#4d8987" stroke-width="3"/><path d="M82 93c-25 18-25 50-17 75M88 94c32 20 35 49 31 74M68 121h47" fill="none" stroke="#4d8987" stroke-width="5" stroke-linecap="round"/><path d="M106 70h42" stroke="#d2a24e" stroke-width="7" stroke-linecap="round"/><path d="M148 70c27-19 52-17 79 0" fill="none" stroke="#72b2b7" stroke-width="4" stroke-dasharray="6 6"/><path d="M231 49c31-5 55 16 55 44 0 24-19 41-43 41h-18V91c0-17 1-29 6-42Z" fill="#fff" stroke="#4d8987" stroke-width="3"/><path d="M181 106c16 0 25 13 25 27M181 140c16 0 25-13 25-27" fill="none" stroke="#d2a24e" stroke-width="3"/><text x="195" y="174" text-anchor="middle" fill="#315d5c" font-family="sans-serif" font-size="12" font-weight="700">過換気にしない</text></svg>
