<svg xmlns="http://www.w3.org/2000/svg" viewBox="0 0 320 200" role="img" aria-labelledby="t d"><title id="t">吸引の必要物品</title><desc id="d">吸引器、カテーテル、防護具、観察物品</desc><rect width="320" height="200" rx="22" fill="#f4f8fb"/><text x="18" y="28" fill="#365a6b" font-family="sans-serif" font-size="15" font-weight="700">吸引器＋カテーテル＋安全確認</text><rect x="25" y="55" width="76" height="96" rx="8" fill="#fff" stroke="#518497" stroke-width="3"/><circle cx="63" cy="84" r="19" fill="#d7ebf1" stroke="#518497" stroke-width="3"/><path d="M45 128h36" stroke="#518497" stroke-width="5"/><path d="M101 101c37 0 26 47 69 47" fill="none" stroke="#518497" stroke-width="5"/><path d="M158 148c38 0 26-73 67-73" fill="none" stroke="#d4ad62" stroke-width="5"/><path d="M224 75h48" stroke="#d4ad62" stroke-width="7" stroke-linecap="round"/><path d="M230 121c0-14 14-24 14-38 0 14 14 24 14 38a14 14 0 1 1-28 0Z" fill="#8bc1c9"/><path d="M273 111l20 20M293 111l-20 20" stroke="#b7544e" stroke-width="5"/><g font-family="sans-serif" text-anchor="middle" font-size="12" font-weight="700"><text x="63" y="175" fill="#365a6b">吸引器</text><text x="157" y="175" fill="#365a6b">カテーテル</text><text x="252" y="175" fill="#365a6b">PPE・観察</text></g></svg>
