<svg xmlns="http://www.w3.org/2000/svg" width="320" height="200" viewBox="0 0 320 200" role="img" aria-labelledby="t"><title id="t">輸血前検査</title><rect width="320" height="200" rx="20" fill="#eef5fb"/><g font-family="sans-serif" text-anchor="middle"><circle cx="48" cy="73" r="27" fill="#fff" stroke="#6b9abb" stroke-width="3"/><path d="M24 137c5-38 43-38 48 0" fill="#dceaf4" stroke="#6b9abb" stroke-width="3"/><text x="48" y="171" font-size="14" font-weight="700" fill="#41647c">患者</text><path d="M83 99h35" stroke="#d0746d" stroke-width="4"/><path d="m108 90 12 9-12 9" fill="none" stroke="#d0746d" stroke-width="4"/><g transform="translate(130 35)"><rect width="76" height="52" rx="12" fill="#fff" stroke="#6b9abb" stroke-width="3"/><text x="38" y="23" font-size="14" font-weight="700" fill="#41647c">ABO</text><text x="38" y="42" font-size="13" fill="#41647c">RhD</text><rect y="72" width="76" height="52" rx="12" fill="#fff" stroke="#6b9abb" stroke-width="3"/><text x="38" y="94" font-size="12" font-weight="700" fill="#41647c">不規則</text><text x="38" y="111" font-size="12" font-weight="700" fill="#41647c">抗体</text></g><path d="M215 99h31" stroke="#d0746d" stroke-width="4"/><path d="m236 90 12 9-12 9" fill="none" stroke="#d0746d" stroke-width="4"/><rect x="255" y="55" width="50" height="88" rx="14" fill="#fff" stroke="#6b9abb" stroke-width="3"/><path d="m266 100 10 10 19-25" fill="none" stroke="#52a17d" stroke-width="5"/><text x="280" y="165" font-size="12" font-weight="700" fill="#41647c">適合性</text></g></svg>
