<svg xmlns="http://www.w3.org/2000/svg" viewBox="0 0 320 200" role="img" aria-labelledby="title desc"><title id="title">末梢神経血管の観察</title><desc id="desc">包帯の外に出た指で、痛み、感覚、運動、色、温度、毛細血管再充満、腫れを確認する。</desc><rect width="320" height="200" rx="20" fill="#edf5ff"/><path d="M35 103c22-18 37-36 45-58 4-10 18-7 17 4l-2 25 9-38c3-11 19-8 16 4l-6 35 13-34c4-10 19-4 15 7l-12 35 13-21c6-9 20 1 14 11l-23 44c-11 21-28 31-55 28-24-3-44-15-50-31z" fill="#fff" stroke="#5d91b4" stroke-width="4"/><path d="M91 44v54M115 42l-8 57M139 48l-19 56M154 69l-25 45" stroke="#7ca8c6" stroke-width="5"/><circle cx="238" cy="55" r="24" fill="#fff1ee" stroke="#d77f77" stroke-width="3"/><path d="M226 55h24" stroke="#c9655d" stroke-width="5"/><circle cx="214" cy="125" r="24" fill="#eaf7f2" stroke="#5ca187" stroke-width="3"/><path d="M202 125l8 8 15-18" fill="none" stroke="#4e9b83" stroke-width="5"/><circle cx="275" cy="125" r="24" fill="#fff8df" stroke="#d0ab37" stroke-width="3"/><path d="M275 111v17l10 7" fill="none" stroke="#b98b12" stroke-width="5" stroke-linecap="round"/><g font-family="sans-serif" font-size="12" font-weight="700" fill="#365d75" text-anchor="middle"><text x="238" y="92">痛み・感覚</text><text x="214" y="164">運動</text><text x="275" y="164">色・温度</text><text x="160" y="188">毛細血管再充満・腫脹も比較</text></g></svg>
